# xmcd
#
# Track frame offsets:
#	180
#	16649
#	27188
#	39319
#	47782
#	57883
#	71510
#	81739
#	96965
#	110633
#	123951
#	136727
#	148766
#	166772
#
# Disc length: 2376 seconds
#
# Revision: 2
# Processed by: cddbd v1.5.2PL0 Copyright (c) Steve Scherf et al.
# Submitted via: audiograbber 1.83.01
#
DISCID=b809460e
DTITLE=Danny Marks - Guitarchaeology
DYEAR=1997
DGENRE=Blues
TTITLE0=El Kabong!
TTITLE1=Toasted Danish
TTITLE2=Long Way Home
TTITLE3=Bonita
TTITLE4=Wave Breaker
TTITLE5=Lights Out
TTITLE6=The Early Bird
TTITLE7=Bon Bon
TTITLE8=Guitarchaeology
TTITLE9=Spy Guitar
TTITLE10=RL-201
TTITLE11=Elevators Away
TTITLE12=Farewell San Miguel
TTITLE13=Hula Blues
EXTD=
EXTT0=
EXTT1=
EXTT2=
EXTT3=
EXTT4=
EXTT5=
EXTT6=
EXTT7=
EXTT8=
EXTT9=
EXTT10=
EXTT11=
EXTT12=
EXTT13=
PLAYORDER=
